<!-- <svg class="w-5 h-5 text-white" viewBox="0 0 24 24" fill="none">
<path d="M12 4.75L19.25 9L12 13.25L4.75 9L12 4.75Z" stroke="currentColor" stroke-width="1.5" stroke-linecap="round" stroke-linejoin="round"></path>
<path d="M9.25 12L4.75 15L12 19.25L19.25 15L14.6722 12" stroke="currentColor" stroke-width="1.5" stroke-linecap="round" stroke-linejoin="round"></path>
</svg> -->

<svg xmlns="http://www.w3.org/2000/svg" class="flex-shrink-0 w-6 h-6 text-gray-400 transition duration-75 dark:text-gray-400 group-hover:text-gray-900 dark:group-hover:text-white" height="24" viewBox="0 -960 960 960" width="24">
        <path d="M240-160q-50 0-85-35t-35-85H40v-440q0-33 23.5-56.5T120-800h560v160h120l120 160v200h-80q0 50-35 85t-85 35q-50 0-85-35t-35-85H360q0 50-35 85t-85 35Zm0-80q17 0 28.5-11.5T280-280q0-17-11.5-28.5T240-320q-17 0-28.5 11.5T200-280q0 17 11.5 28.5T240-240ZM120-360h32q17-18 39-29t49-11q27 0 49 11t39 29h272v-360H120v360Zm600 120q17 0 28.5-11.5T760-280q0-17-11.5-28.5T720-320q-17 0-28.5 11.5T680-280q0 17 11.5 28.5T720-240Zm-40-200h170l-90-120h-80v120ZM360-540Z" fill="currentColor" />
</svg>